<svg width="128" height="128" viewBox="0 0 128 128" fill="none" xmlns="http://www.w3.org/2000/svg">
<g clip-path="url(#clip0_1332_1022)">
<circle cx="64" cy="64" r="64" fill="#FDF4E7"/>
<path fill-rule="evenodd" clip-rule="evenodd" d="M34.9705 26.5836C32.7548 26.5755 30.6266 27.4477 29.0538 29.0084C27.481 30.5691 26.5924 32.6905 26.5833 34.9063V36.7566C26.5833 38.2884 27.8346 39.5321 29.3778 39.5321C29.7438 39.5336 30.1065 39.463 30.4452 39.3243C30.7839 39.1856 31.0919 38.9816 31.3518 38.7239C31.6116 38.4662 31.8181 38.1598 31.9596 37.8222C32.101 37.4847 32.1746 37.1226 32.1761 36.7566V34.9063C32.1761 33.3744 33.4273 32.1308 34.9705 32.1308C36.5137 32.1308 37.765 33.3744 37.765 34.9063V79.2953C37.765 83.8946 41.5187 87.6218 46.1559 87.6218H92.7479C93.4864 87.6238 94.1955 87.3326 94.7194 86.8122C95.2434 86.2918 95.5394 85.5848 95.5424 84.8463C95.5394 84.1078 95.2434 83.4007 94.7194 82.8803C94.1955 82.3599 93.4864 82.0688 92.7479 82.0708H46.1521C45.7863 82.0723 45.4238 82.0017 45.0854 81.8629C44.7469 81.7242 44.4391 81.5201 44.1795 81.2624C43.92 81.0046 43.7138 80.6982 43.5728 80.3606C43.4318 80.0231 43.3587 79.6611 43.3577 79.2953V78.3739H91.4208C93.4928 78.3795 95.493 77.6159 97.0341 76.231C98.5752 74.8461 99.5474 72.9385 99.7625 70.8778L102.375 44.9807C102.488 43.819 102.356 42.6465 101.987 41.5391C101.619 40.4316 101.022 39.4138 100.235 38.5515C99.4489 37.6891 98.4901 37.0015 97.4211 36.5329C96.3521 36.0644 95.1967 35.8254 94.0295 35.8314H43.3577V34.9063C43.3577 30.3108 39.6039 26.5836 34.9705 26.5836ZM81.5701 89.4683C77.968 89.4683 75.0446 92.369 75.0446 95.9445C75.0446 99.52 77.9642 102.417 81.5663 102.417C85.1684 102.417 88.0918 99.52 88.0918 95.9445C88.0918 92.369 85.1722 89.4683 81.5701 89.4683ZM55.4721 89.4683C51.87 89.4683 48.9504 92.369 48.9504 95.9445C48.9504 99.52 51.87 102.417 55.4721 102.417C59.0741 102.417 61.9975 99.52 61.9975 95.9445C61.9975 92.369 59.0741 89.4683 55.4721 89.4683Z" fill="#F44831"/>
</g>
<defs>
<clipPath id="clip0_1332_1022">
<rect width="128" height="128" fill="white"/>
</clipPath>
</defs>
</svg>
